<svg width="72" height="66" viewBox="0 0 72 66" fill="none" xmlns="http://www.w3.org/2000/svg">
<rect x="0.5" width="71" height="66" rx="30" fill="#002D84"/>
<path fill-rule="evenodd" clip-rule="evenodd" d="M58.265 19.412C61.6533 22.5941 62.1397 28.1886 59.3514 31.9077L40.0448 57.6595C37.2565 61.3786 32.2494 61.8139 28.8611 58.6318V58.6318C25.4728 55.4498 24.9864 49.8553 27.7747 46.1362L47.0813 20.3844C49.8696 16.6653 54.8767 16.2299 58.265 19.412V19.412Z" fill="white"/>
<path fill-rule="evenodd" clip-rule="evenodd" d="M38.1931 59.6524C34.4603 63.1581 28.944 62.6785 25.8721 58.5812L6.06205 32.1578C2.99022 28.0605 3.5261 21.8971 7.25898 18.3914V18.3914C10.9919 14.8857 16.5082 15.3653 19.58 19.4627L39.3901 45.886C42.4619 49.9833 41.926 56.1468 38.1931 59.6524V59.6524Z" fill="white"/>
<path fill-rule="evenodd" clip-rule="evenodd" d="M7.31673 51.5796C3.55195 48.0566 3.01303 41.8606 6.11302 37.7405L27.5579 9.23878C30.6579 5.11868 36.2229 4.63464 39.9877 8.15765V8.15765C43.7524 11.6807 44.2914 17.8766 41.1914 21.9967L19.7465 50.4985C16.6465 54.6186 11.0815 55.1026 7.31673 51.5796V51.5796Z" fill="#002D84" fill-opacity="0.71"/>
<path fill-rule="evenodd" clip-rule="evenodd" d="M29.6188 7.0277C33.7664 3.14642 39.8973 3.67968 43.3126 8.21877L65.3162 37.4631C68.7314 42.0022 68.1377 48.8283 63.9901 52.7096V52.7096C59.8424 56.5908 53.7115 56.0576 50.2963 51.5185L28.2926 22.2742C24.8774 17.7351 25.4711 10.909 29.6188 7.0277V7.0277Z" fill="#002D84" fill-opacity="0.71"/>
</svg>